<svg data-v-9b61b554="" viewBox="0 0 50 24" fill="none" xmlns="http://www.w3.org/2000/svg" width="50" height="24"><path fill-rule="evenodd" clip-rule="evenodd" d="M32.586 18.504c.885 0 1.495-.141 2.81-.916l-.891-2.074c-.363.159-.671.206-1.17.206-.84 0-1.316-.48-1.316-1.488V8.184h2.39V5.712h-2.39V3H28.75v11.544c0 2.616 1.339 3.96 3.835 3.96zm-18.592-4.2c-.385 2.711-2.428 4.223-5.672 4.223-3.586 0-6.195-2.376-6.195-6.384v-.192c0-3.96 2.655-6.528 6.104-6.528 3.063 0 5.786 1.896 5.786 6.384v.96H5.463c.09 2.088 1.157 3.288 2.95 3.288 1.52 0 2.268-.696 2.473-1.752h3.108zm-5.763-6.48c-1.475 0-2.473 1.031-2.723 2.807h5.31c-.114-1.896-1.022-2.808-2.587-2.808zm10.73 10.44h-3.29V5.71h3.29v1.992c.59-1.248 1.884-2.28 3.858-2.28 2.338 0 3.994 1.488 3.994 4.848v7.992h-3.29v-7.488c0-1.704-.636-2.52-2.088-2.52-1.407 0-2.473.912-2.473 2.76v7.248zm22.417 4.272H38.2l2.088-5.544-4.72-11.28h3.54l2.881 7.536 2.655-7.536H47.8l-6.421 16.824z" fill="#1b1a1a"></path></svg>